<svg width="2800" height="2800" viewBox="0 0 2800 2800" fill="none" xmlns="http://www.w3.org/2000/svg">
<circle cx="1400" cy="1400" r="1400" fill="white"/>
<g clip-path="url(#clip0_0_1)">
<path d="M2085.62 1780.54C2011.13 1837.92 1763.26 2013.53 1400.38 2013.53C1037.5 2013.53 789.447 1837.92 714.772 1780.54V999.32H2085.37L2085.62 1780.54Z" fill="#040761"/>
<path d="M1377.59 1604.76L458.875 1146.14C454.044 1143.73 449.988 1140.02 447.172 1135.42C444.355 1130.81 442.892 1125.51 442.95 1120.11C443.008 1114.72 444.585 1109.45 447.499 1104.91C450.414 1100.37 454.549 1096.74 459.43 1094.44L1402.05 648.611C1405.81 646.872 1409.91 645.971 1414.06 645.971C1418.21 645.971 1422.31 646.872 1426.08 648.611L2423.79 1094.75C2428.78 1096.98 2433.04 1100.59 2436.05 1105.16C2439.06 1109.73 2440.7 1115.06 2440.79 1120.53C2440.87 1126 2439.39 1131.38 2436.52 1136.04C2433.66 1140.69 2429.52 1144.43 2424.59 1146.82L1478.15 1605.37C1462.45 1612.96 1445.23 1616.85 1427.8 1616.74C1410.37 1616.63 1393.19 1612.53 1377.59 1604.76L1377.59 1604.76Z" fill="#5BAFE3"/>
<path d="M2355.41 1117.91V1895.24H2269.68V1147.87H1523.91C1515.55 1159.26 1503.87 1167.78 1490.46 1172.25C1477.06 1176.73 1462.6 1176.93 1449.07 1172.85C1435.55 1168.76 1423.62 1160.58 1414.94 1149.43C1406.26 1138.28 1401.25 1124.72 1400.6 1110.6C1399.95 1096.49 1403.69 1082.52 1411.31 1070.62C1418.93 1058.72 1430.05 1049.47 1443.14 1044.16C1456.23 1038.84 1470.65 1037.72 1484.41 1040.94C1498.17 1044.16 1510.59 1051.57 1519.96 1062.14H2299.95C2307.25 1062.16 2314.48 1063.61 2321.23 1066.42C2327.97 1069.24 2334.09 1073.35 2339.24 1078.53C2344.39 1083.71 2348.47 1089.85 2351.25 1096.61C2354.02 1103.37 2355.44 1110.61 2355.41 1117.91V1117.91Z" fill="#040761"/>
<path d="M2443 2104.82C2400.35 2138.43 2346.71 2154.97 2292.54 2151.2C2250.33 2147.51 2210.17 2131.37 2177.16 2104.82L2270.36 1808.03C2282.74 1816.98 2297.62 1821.79 2312.89 1821.79C2328.16 1821.79 2343.04 1816.98 2355.41 1808.03L2443 2104.82Z" fill="#5BAFE3"/>
</g>
<defs>
<clipPath id="clip0_0_1">
<rect width="2000" height="2000" fill="white" transform="translate(443 400)"/>
</clipPath>
</defs>
</svg>
