<svg xmlns="http://www.w3.org/2000/svg" xmlns:xlink="http://www.w3.org/1999/xlink" preserveAspectRatio="xMidYMid meet" version="1.0" viewBox="0 -0.409 1324.877 1000" zoomAndPan="magnify" width="2000" height="2000"><g data-name="21"><g id="change1_1"><path d="M1088.133 751.677c-49.345 38.012 -213.544 154.338 -453.928 154.338s-404.705 -116.326 -454.173 -154.338V234.165h907.938Z" fill="#040761"/></g><g id="change2_1"><path d="M619.108 635.23 10.516 331.423a19.027 19.027 0 0 1 0.368 -34.247L635.31 1.842a18.985 18.985 0 0 1 15.917 0l660.924 295.54a19.027 19.027 0 0 1 0.533 34.493L685.721 635.638a75.572 75.572 0 0 1 -66.612 -0.409Z" fill="#5bafe3"/></g><g id="change1_2"><path d="M1266.857 312.725v514.935h-56.792V332.571H716.039a45.254 45.254 0 1 1 -2.619 -56.792h516.694a36.825 36.825 0 0 1 36.743 36.947Z" fill="#040761"/></g><g id="change2_2"><path d="M1324.877 966.488a144.804 144.804 0 0 1 -99.673 30.728 141.612 141.612 0 0 1 -76.432 -30.728l61.743 -196.604a48.077 48.077 0 0 0 56.342 0Z" fill="#5bafe3"/></g></g></svg>