<svg xmlns="http://www.w3.org/2000/svg" xmlns:xlink="http://www.w3.org/1999/xlink" height="444.6" preserveAspectRatio="xMidYMid meet" version="1.0" viewBox="-0.0 -0.7 463.2 444.6" width="463.2" zoomAndPan="magnify"><g id="change1_1"><path d="M351.58,131.02c-66,66.39-181.15-41.11-178.98-55.66c2.17-14.55,25.97-9.19,25.97-9.19 c-13.74-6.38-29.67-27.96-18.56-33.96s33.45,3.06,33.45,3.06c-11.62-12.77-18.38-34.47-3.57-35.23 c14.81-0.77,18.51,9.83,63.06,12.51c44.55,2.68,47.11,23.08,47.11,23.08s19.61-9.28,36.38,23.64 C377.36,100.38,351.58,131.02,351.58,131.02z" fill="#2B1200"/></g><g id="change2_1"><path d="M340.83,108.41v27.98c0,14.12-4.17,27.32-11.35,38.42c-8.91,13.8-22.47,24.35-38.42,29.41 c-6.75,2.14-13.93,3.3-21.37,3.3c-9.62,0-18.82-1.94-27.21-5.44c-25.72-10.74-43.92-36.19-43.92-65.69v-27.98 c0-2.38,0.12-4.73,0.35-7.05c1.45-14.55,7.33-27.84,16.27-38.5c2.18-2.61,4.55-5.06,7.08-7.34c12.61-11.33,29.25-18.24,47.43-18.24 c19.57,0,37.35,8,50.24,20.89C332.83,71.07,340.83,88.85,340.83,108.41z" fill="#F7BA9C"/></g><g id="change3_1"><path d="M439.15,442.39H146.04l2.51-40.61C58.28,443.91,11.85,411.66,2,370.15c0-0.02-0.01-0.04-0.01-0.07 c-0.77-2.97-1.27-6-1.55-9.06c-0.32-2.95-0.47-5.93-0.44-8.9c0.02-2.15,0.29-4.31,0.8-6.47c0.96-7.48,3.47-14.92,5.76-22.61 c27.91-93.69,114.32-47.87,114.32-47.87c2.23-2.27,4.48-4.46,6.74-6.56c50.2-46.55,108.63-50.74,173.14-50.28 c0,0,103.92-0.01,145.54,64.34c8.79,13.59,12.77,30.28,13.79,47.68C463.19,383.06,439.15,442.39,439.15,442.39z" fill="#F7EEFF"/></g><g id="change4_1"><path d="M439.15,442.39H277.93c135.47,0,182.15-112.04,182.15-112.04h0.01 C463.19,383.06,439.15,442.39,439.15,442.39z M6.56,323.04c-2.78,7.53-4.8,15.13-5.76,22.61c-0.51,2.16-0.78,4.32-0.8,6.47 c-0.03,2.97,0.12,5.95,0.44,8.9c0.28,3.06,0.78,6.09,1.55,9.06c0,0.03,0.01,0.05,0.01,0.07c9.85,41.51,56.28,73.76,146.55,31.63 l3.32-50.48C151.87,351.3,11.09,420.09,6.56,323.04z M303.46,280.29c-4.37-2.28-6.7-4.74-6.7-4.74l-32.73,17.61l36.22-25.97 l-27.57-48.34l-37.02,31.32l12.85,54.13l7.05-5.06l-35.65,143.16h37.11l1.7-117.33l19.21-24.17L303.46,280.29z M130.72,315.1 c0,0,18.1-22.12-3.1-46.49c-2.26,2.1-4.51,4.29-6.74,6.56C120.88,275.17,135.32,282.04,130.72,315.1z" fill="#D5BBF2"/></g><g id="change2_2"><path d="M343.4,225.48l-54.55,33.88l-27.04,16.79l-5.01-19.2l-10.54-40.37l-10.6-40.63l92.42-24.77l12.7,61.62 L343.4,225.48z" fill="#F7BA9C"/></g><g id="change1_2"><path d="M194.08,97.19c-0.35-17.07,10.69-56.81,53.07-59.9c32.36-2.36,52.6-1.5,52.6-1.5l51.83,45.45l-12,43.6 l-8.78-12.26c-36.41-13.72-25.69-53.8-25.69-53.8C271.92,101.4,194.08,97.19,194.08,97.19z" fill="#2B1200"/></g><g id="change2_3"><path d="M371.65,142.44c-1.25,15.91-16.4,31.92-33.42,30.58c-17.02-1.34-29.47-19.52-28.22-35.44 c0.7-8.9,5.65-16.52,12.85-21.27c5.67-3.74,12.74-5.7,20.24-5.11c7.31,0.57,13.83,3.48,18.8,7.88 C368.51,124.91,372.36,133.36,371.65,142.44z" fill="#F7BA9C"/></g><g id="change1_3"><path d="M291.06,204.22c-11.65,10.47-26.73,17.15-43.29,18.11l-5.29-20.25c8.39,3.5,17.59,5.44,27.21,5.44 C277.13,207.52,284.31,206.36,291.06,204.22z M289.66,109.93c-4.11-0.31-7.69,2.77-8,6.87c-0.31,4.11,2.77,7.69,6.87,8 c4.11,0.31,7.69-2.77,8-6.87C296.84,113.82,293.77,110.24,289.66,109.93z M242.12,108.32c-4.11-0.31-7.69,2.77-8,6.87 c-0.31,4.11,2.77,7.69,6.87,8c4.11,0.31,7.69-2.77,8-6.87C249.3,112.22,246.22,108.63,242.12,108.32z M291.75,55.78 c0.68,12.94-6.64,24.43-9.19,29.28s2.47,13.19,16.85,0c14.38-13.19,14.47-29.28,14.47-29.28H291.75z M345.9,157.92l0.11-0.54 c0.84-4.18-0.99-8.53-4.68-11.09c-4.31-3-3.3-9.91-3.29-9.98c0.01-0.05,0.01-0.1,0.01-0.15c0-4.79,3.9-8.69,8.69-8.69 s8.69,3.9,8.69,8.69c0,0.55,0.45,1,1,1s1-0.45,1-1c0-5.89-4.79-10.69-10.69-10.69c-5.87,0-10.65,4.75-10.69,10.61 c-0.13,0.9-0.98,8.29,4.14,11.85c3.03,2.1,4.54,5.66,3.86,9.05l-0.11,0.54c-0.11,0.54,0.24,1.07,0.78,1.18 c0.07,0.01,0.13,0.02,0.2,0.02C345.38,158.73,345.8,158.4,345.9,157.92z M258.26,139.35c0.51-0.21,0.75-0.8,0.54-1.31l-0.05-0.12 c-1.77-4.3,0.16-9.16,4.39-11.08l5.1-2.31c0.5-0.23,0.73-0.82,0.5-1.32c-0.23-0.5-0.82-0.73-1.32-0.5l-5.1,2.31 c-5.22,2.36-7.6,8.37-5.42,13.67l0.05,0.13c0.16,0.38,0.53,0.62,0.92,0.62C258,139.42,258.13,139.4,258.26,139.35z" fill="#2B1200"/></g><g id="change3_2"><path d="M284.92,143.14c2.86-0.37,5.34,2.02,5.05,4.89c-1.1,10.78-9.49,19.78-20.69,21.23 c-11.21,1.45-21.61-5.11-25.43-15.25c-1.02-2.7,0.77-5.64,3.63-6.01L284.92,143.14z M320.16,140.81l1.35-5.53 c0.43-1.77-0.65-3.55-2.42-3.98l-12.2-2.98c-1.77-0.43-3.55,0.65-3.98,2.42l-1.35,5.53c-0.43,1.77,0.65,3.55,2.42,3.98l12.2,2.98 C317.95,143.66,319.73,142.58,320.16,140.81z M229.84,105.37l-1.47-5.5c-0.47-1.76-2.28-2.8-4.03-2.33l-12.13,3.24 c-1.76,0.47-2.8,2.28-2.33,4.03l1.47,5.5c0.47,1.76,2.28,2.8,4.03,2.33l12.13-3.24C229.27,108.94,230.31,107.13,229.84,105.37z" fill="#F7EEFF"/></g><g id="change4_2"><path d="M266.77,156.2c-0.5,0-0.93-0.37-0.99-0.88c-0.07-0.55,0.32-1.05,0.87-1.12l22.32-2.81 c0.56-0.07,1.05,0.32,1.12,0.87c0.07,0.55-0.32,1.05-0.87,1.12l-22.32,2.81C266.86,156.2,266.81,156.2,266.77,156.2z M323.82,393.92 c1.63-1.3,2.65-3.16,2.88-5.24l6.71-60.22c0.23-2.07-0.36-4.11-1.66-5.74c-1.3-1.63-3.16-2.65-5.24-2.88l-37.67-4.2 c-4.28-0.47-8.15,2.62-8.62,6.9l-6.71,60.22c-0.48,4.28,2.62,8.15,6.9,8.62l37.67,4.2c0.29,0.03,0.59,0.05,0.88,0.05 C320.72,395.63,322.42,395.03,323.82,393.92z M288.63,317.62l37.67,4.2c1.54,0.17,2.92,0.93,3.89,2.15 c0.97,1.21,1.41,2.73,1.24,4.27l-6.71,60.22c-0.36,3.18-3.24,5.49-6.42,5.13c0,0,0,0,0,0l-37.67-4.2c-3.18-0.35-5.48-3.23-5.13-6.42 l6.71-60.22c0.33-2.96,2.85-5.17,5.77-5.17C288.2,317.59,288.41,317.6,288.63,317.62z M313.42,442.67 c24.47-85.88,88.73-143.86,89.38-144.43c0.41-0.37,0.45-1,0.08-1.41c-0.37-0.41-1-0.45-1.41-0.08 c-0.65,0.58-65.34,58.92-89.97,145.38c-0.15,0.53,0.16,1.08,0.69,1.24c0.09,0.03,0.18,0.04,0.28,0.04 C312.89,443.39,313.29,443.11,313.42,442.67z" fill="#D5BBF2"/></g><g id="change5_1"><path d="M314.26,267.73l-41.93,30.68l-18.37,26.65l-6.81,117.33h-64l50.72-119.37l1.54-31.56l-4.02-24.5 c-0.63-3.82,1.96-7.42,5.77-8.04c3.81-0.63,7.42,1.96,8.04,5.77l3.73,22.73l13.12,1.16L306,256.43c3.12-2.28,7.5-1.6,9.78,1.52 C318.06,261.07,317.38,265.45,314.26,267.73z" fill="#F76F6F"/></g><g id="change3_3"><path d="M359.28,251.54l-51.45,31.04c-2.99,1.8-6.88,0.69-8.45-2.43l-10.52-20.79l-27.04,16.79l24.48-29.43 l55.39-34.47c3.94-2.45,9.14-0.71,10.81,3.62l10.07,26.1C363.94,245.53,362.55,249.56,359.28,251.54z M246.26,216.58l-15.76,10.61 c-2.4,1.62-3.97,4.2-4.3,7.08l-4.22,36.7c-0.42,3.65,3.6,6.15,6.69,4.15l21.98-14.2l11.16,15.23l-8.38-32.09L246.26,216.58z" fill="#F7EEFF"/></g><g id="change2_4"><path d="M162.47,209.67c-11.32,14.62-20.21,26.04-37.69,31.31l-23.16,77.49c-4.4,15.27-19.67,24.9-35.27,21.92 c-0.31-0.06-0.63-0.12-0.94-0.19c-21.43-4.49-32.27-28.59-21.54-47.68l38.33-69.94c0,0-12.38-26.08-7.91-39.99 c4.47-13.91,19.78-8.97,19.78-8.97s2.05-6.36,7.28-10.06c5.23-3.7,12.51-0.88,12.51-0.88s5.62-16.6,20.79-5.51 c0,0,15.46-24.74,26.69,23.9c0,0,25.28-17.62,33.19,0S173.83,194.99,162.47,209.67z" fill="#F7BA9C"/></g><g id="change1_4"><path d="M361.29,252.63l-49.88,31.27c-1.46,0.91-3.14,1.39-4.83,1.39c-0.79,0-1.59-0.1-2.37-0.32 c-2.44-0.66-4.5-2.32-5.67-4.56l-4.62-8.84c-0.25-0.49-0.07-1.09,0.42-1.35c0.49-0.26,1.09-0.07,1.35,0.42l4.62,8.84 c0.92,1.77,2.5,3.04,4.42,3.56c1.93,0.52,3.92,0.23,5.62-0.84l49.88-31.27c2.74-1.72,3.82-5.24,2.51-8.2l-7.25-16.34 c-0.22-0.5,0-1.1,0.51-1.32c0.51-0.23,1.1,0,1.32,0.51l7.25,16.34C366.27,245.78,364.87,250.38,361.29,252.63z M245.36,264.3 c-0.31-0.45-0.94-0.57-1.39-0.25l-16.41,11.39c-0.93,0.64-2.05,0.68-3.01,0.09c-0.74-0.46-1.47-1.41-1.29-2.73l5.93-43.31 c0.07-0.55-0.31-1.05-0.86-1.13c-0.55-0.07-1.05,0.31-1.13,0.86l-5.93,43.31c-0.26,1.9,0.59,3.7,2.23,4.7 c0.78,0.48,1.63,0.71,2.49,0.71c0.94,0,1.89-0.29,2.71-0.86l16.41-11.39C245.57,265.38,245.68,264.76,245.36,264.3z M161.22,180.06 c-0.55,0.07-0.93,0.57-0.87,1.12c0.06,0.47,1.19,11.29-15.01,14.76c4.94-10.81-8.05-32.5-8.67-33.53c-0.29-0.47-0.9-0.62-1.37-0.34 c-0.47,0.29-0.62,0.9-0.34,1.37c0.16,0.27,16.26,27.13,6.33,34.48c-3.38,2.5-6.39,3.52-8.69,2.94c-1.76-0.44-2.7-1.67-3.07-2.25 c0.82-2.58,0.98-5.39,0.3-8.2c-2.31-9.62-9-19.25-9.29-19.66c-0.32-0.45-0.94-0.56-1.39-0.25s-0.56,0.94-0.25,1.39 c0.07,0.1,6.76,9.73,8.98,18.98c0.62,2.57,0.44,5.14-0.37,7.48c-0.01,0.02-0.01,0.03-0.02,0.05c-1.39,3.95-4.61,7.19-8.94,8.46 l-0.98,0.29c2.63-12.93-16.11-26.34-16.94-26.93c-0.45-0.32-1.08-0.21-1.39,0.24s-0.21,1.08,0.24,1.39 c0.2,0.14,20.13,14.39,15.72,26.41c-2.88,7.87-10.81,7.29-13.17,6.92c-4.91-0.76-8.3-3.38-8.39-5.34c-0.02-0.55-0.48-0.96-1.04-0.96 c-0.55,0.02-0.98,0.49-0.96,1.04c0.14,3.26,4.47,6.37,10.08,7.23c0.88,0.14,1.79,0.21,2.71,0.21c4.87,0,10.06-2.08,12.44-7.94 l2.24-0.66c4.34-1.28,7.7-4.28,9.55-8.04c0.57,0.61,1.36,1.26,2.43,1.71c-9.47,4.74-11,13.37-11.07,13.77 c-0.09,0.54,0.28,1.06,0.82,1.15c0.06,0.01,0.11,0.01,0.17,0.01c0.48,0,0.9-0.35,0.99-0.83c0.07-0.4,1.76-9.73,12.92-13.53 c0.06-0.02,0.1-0.06,0.14-0.08c2.24-0.29,4.72-1.43,7.4-3.42c0.61-0.45,1.12-0.96,1.57-1.51c0.14,0.07,0.28,0.12,0.44,0.12 c0.06,0,0.12-0.01,0.18-0.02c19.22-3.58,17.68-17.06,17.66-17.2C162.26,180.38,161.77,179.99,161.22,180.06z M102.36,208.86 c0.34,0,0.68-0.18,0.86-0.49c0.28-0.48,0.12-1.09-0.35-1.37l-13.02-7.66c-0.48-0.28-1.09-0.12-1.37,0.35 c-0.28,0.48-0.12,1.09,0.35,1.37l13.02,7.66C102.02,208.82,102.19,208.86,102.36,208.86z M254.06,324.07l-20.08-2.04 c-0.57-0.05-1.04,0.35-1.1,0.89c-0.06,0.55,0.34,1.04,0.89,1.1l20.08,2.04c0.04,0,0.07,0,0.1,0c0.51,0,0.94-0.38,0.99-0.9 C255.01,324.61,254.61,324.12,254.06,324.07z" fill="#2B1200"/></g></svg>