<svg xmlns="http://www.w3.org/2000/svg" xmlns:xlink="http://www.w3.org/1999/xlink" height="425.1" preserveAspectRatio="xMidYMid meet" version="1.0" viewBox="0.0 0.0 506.5 425.1" width="506.5" zoomAndPan="magnify"><g id="change1_1"><path d="M111.41,314.38c-11.61,11.08-27.25,17.98-44.5,18.23C30.54,333.15,0,303.07,0,266.7 c0-14.8,4.88-28.46,13.12-39.46c9.98-13.33,15.53-29.55,14.55-46.18c-0.07-1.18-0.1-2.37-0.09-3.56 c0.18-28.9,23.6-52.83,52.49-53.63c1.93-0.05,3.84,0,5.72,0.14c20.47,1.59,41.01-3.1,58-14.63c30.81-20.92,44.9-47.23,44.9-47.23 l108.6-50.64l59.07,64C420.32,303.19,171.13,314.81,111.41,314.38z" fill="#2B1200"/></g><g id="change2_1"><path d="M133.03,424.1C75.84,188.18,297.8,188.39,297.8,188.39c208.68,25.74,154.89,235.7,154.89,235.7H133.03z" fill="#FFDCDC"/></g><g id="change1_2"><path d="M356.96,85.79c0,47.38-38.41,85.79-85.79,85.79c-47.38,0-85.79-38.41-85.79-85.79 C185.37,38.41,223.78,0,271.16,0C318.55,0,356.96,38.41,356.96,85.79z" fill="#2B1200"/></g><g id="change3_1"><path d="M452.69,424.1H285.2l18.6-129.08c1.48-10.25,7.86-19.07,17.01-23.92c33.98-17.99,31.44-70.5,31.44-70.5 c12.4,2.72,23.47,6.44,33.32,10.98h0.01C498.86,263.73,452.69,424.1,452.69,424.1z M234.65,198.52c0,0-81.96,5.23-107.75,93.31 c-4.59,15.67-7.35,29.95-8.78,42.83c-6.66,59.57,14.91,89.43,14.91,89.43h110.08l8.03-134.97c0.49-8.17-1.93-16.31-7.09-22.67 C221.97,239.26,234.65,198.52,234.65,198.52z" fill="#E95E5B"/></g><g id="change2_2"><path d="M352.25,203.97c0,32.97-26.38,51.23-59.34,51.23c-32.97,0-62.6-17.48-60.04-51.23 c2.49-32.87,26.73-59.69,59.69-59.69C325.52,144.27,352.25,171,352.25,203.97z" fill="#FFDCDC"/></g><g id="change4_1"><path d="M354.35,136.35c-0.73,0.1-1.47,0.15-2.19,0.18c-0.95,19.43-10,37.49-24.41,49.96 c0.03,0.63,0.05,1.27,0.05,1.91c0,19.27-15.62,34.89-34.89,34.89c-15.21,0-28.13-9.73-32.91-23.3c-17.56-5.82-32.51-18.43-41-35.32 c-0.68,0.27-1.37,0.52-2.08,0.73c-16.26,4.8-34.28-7.64-38.76-22.85c-2.56-8.68-0.54-17.69,4.68-24.7 c3.92-5.3,9.66-9.47,16.65-11.52c1.72-0.51,3.45-0.87,5.17-1.08l-0.01-0.04c0.07,0,0.15,0,0.22,0.01c2.57-0.31,5.12-0.3,7.59-0.01 c26.11-0.96,58.88-10.63,73.29-14.94c4.93-1.48,8.85-5.26,10.45-10.15c5.45-16.6,2.87-33.86,1.62-40.11 c6.92,29.57,19.68,39.57,32.01,42.51c4.49-3.78,10.17-6.4,16.56-7.23c7.22-0.95,14.16,0.54,19.89,3.8 c7.62,4.3,13.1,11.72,14.28,20.69C382.61,115.49,371.17,134.16,354.35,136.35z M297.28,37.57c0.16,0.79,0.34,1.56,0.52,2.32 C297.52,38.54,297.32,37.72,297.28,37.57z" fill="#EAA288"/></g><g id="change5_1"><path d="M195.33,424.1h-62.3c0,0-21.57-29.86-14.91-89.43l58.09-1.09C176.21,333.58,182.05,385.8,195.33,424.1z" fill="#DD4B59"/></g><g id="change3_2"><path d="M176.21,333.58c-18.55,51.56-63.5,82.59-100.4,69.32c-36.9-13.28-51.78-65.83-33.23-117.39 c4.25-11.81,9.88-22.54,16.49-31.91c10.63-15.09,23.78-26.64,37.72-33.46c0,0,0,0,0,0c0-0.23-0.02-0.45-0.02-0.68 c0-20.8,16.86-37.66,37.66-37.66c20.8,0,37.66,16.86,37.66,37.66c0,10.08-3.97,19.23-10.42,25.99 C173.6,272.02,184.54,310.43,176.21,333.58z" fill="#E95E5B"/></g><g id="change4_2"><path d="M189.55,158.93c0.41,3.35,0.35,6.6-0.39,9.61c-5.01,20.33-29.07,48.42-29.07,48.42s-18.66,4.03-38.04-19.95 l13.86-20.42c0,0-26.76-13.41-28.14-25.12c-1.38-11.71-3.29-25.01,4.08-26.36c7.37-1.35,9.64,19.18,9.64,19.18l10.27,5.53 c0,0-12.22-15.37-12.97-34.16c-0.76-18.79,3.61-35.51,13.79-25.8c0,0,1.1-10.66,8.67-11.87c7.57-1.22,7.23,13.11,7.23,13.11 s15.94-27.15,20.33,26.02c0,0,1.29,1.58,3.22,4.25c0.62-5.77,3.1-12.23,11.37-10.54c13.74,2.81,6.18,48.13,6.18,48.13L189.55,158.93 z" fill="#EAA288"/></g><g id="change5_2"><path d="M452.69,424.1h-60.76c64.34-123.69-6.36-212.52-6.36-212.52h0.01C498.86,263.73,452.69,424.1,452.69,424.1z M59.07,253.6c-6.61,9.37-12.24,20.1-16.49,31.91c-18.55,51.56-3.67,104.11,33.23,117.39c36.9,13.27,81.85-17.76,100.4-69.32 C59.87,403.51,59.07,253.6,59.07,253.6z" fill="#DD4B59"/></g><g id="change1_3"><path d="M342.99,100.75c-1.26-6.14,2.69-12.17,8.83-13.47c2.99-0.63,6.04-0.06,8.6,1.6 c2.56,1.67,4.32,4.23,4.95,7.21c0.11,0.54-0.23,1.07-0.77,1.19c-0.55,0.11-1.07-0.23-1.19-0.77c-0.52-2.46-1.97-4.58-4.08-5.95 c-2.11-1.37-4.63-1.84-7.09-1.32c-5.09,1.07-8.35,6.09-7.28,11.18c0.01,0.05,0.02,0.1,0.02,0.15c0,0.08,0.48,7.63,5.74,9.84 c4.42,1.86,7.31,6.01,7.35,10.57l0,0.59c0,0.55-0.44,1-0.99,1.01c0,0,0,0-0.01,0c-0.55,0-1-0.44-1-0.99l0-0.59 c-0.03-3.76-2.44-7.19-6.12-8.74C343.78,109.65,343.05,101.7,342.99,100.75z M199.37,119.5c-2.99,0.63-5.55,2.39-7.22,4.95 c-1.67,2.56-2.24,5.61-1.6,8.6c0.11,0.54,0.65,0.89,1.19,0.77c0.54-0.11,0.89-0.65,0.77-1.19c-0.52-2.46-0.05-4.98,1.32-7.09 c1.37-2.11,3.49-3.56,5.95-4.08c5.09-1.08,10.1,2.19,11.18,7.28c0.01,0.05,0.03,0.1,0.04,0.15c0.03,0.07,2.64,7.17-1.27,11.32 c-3.29,3.49-4.25,8.46-2.44,12.64l0.23,0.54c0.16,0.38,0.53,0.6,0.92,0.6c0.13,0,0.27-0.03,0.4-0.08c0.51-0.22,0.74-0.81,0.52-1.31 l-0.23-0.54c-1.49-3.45-0.68-7.56,2.06-10.47c4.58-4.87,2.03-12.43,1.71-13.33C211.57,122.12,205.51,118.2,199.37,119.5z M246.97,110.43c-5.01,1.06-8.21,5.97-7.15,10.98c1.06,5.01,5.97,8.21,10.98,7.15c5.01-1.06,8.21-5.97,7.15-10.98 C256.89,112.57,251.98,109.37,246.97,110.43z M297.48,109.23c1.06,5.01,5.97,8.21,10.98,7.15c5.01-1.06,8.21-5.97,7.15-10.98 c-1.06-5.01-5.97-8.21-10.98-7.15C299.62,99.3,296.42,104.22,297.48,109.23z M277.37,139.05c2.05,1.59,4.54,2.43,7.09,2.43 c0.8,0,1.6-0.08,2.4-0.25l4.11-0.87c0.54-0.11,0.89-0.65,0.77-1.19s-0.64-0.88-1.19-0.77l-4.11,0.87c-2.76,0.58-5.62-0.07-7.85-1.8 s-3.58-4.33-3.7-7.15l-0.37-8.33c-0.02-0.55-0.5-0.96-1.04-0.96c-0.55,0.02-0.98,0.49-0.96,1.04l0.37,8.33 C273.04,133.82,274.67,136.97,277.37,139.05z M302.73,143.94c-0.24,0.67-6.13,16.49-27.36,14.14c-0.55-0.06-1.04,0.34-1.1,0.88 c-0.06,0.55,0.33,1.04,0.88,1.1c1.52,0.17,2.97,0.25,4.34,0.25c19.36,0,25.06-15.54,25.12-15.71c0.18-0.52-0.09-1.09-0.61-1.27 C303.49,143.15,302.92,143.42,302.73,143.94z M296.44,202.04c-9.55,2.02-19.07,1.97-28.11,0.17c6.08,5.18,13.97,8.29,22.57,8.29 c13.87,0,25.84-8.08,31.48-19.79C314.81,196.07,306.06,200.01,296.44,202.04z M217.2,167.4c0.53-0.16,0.83-0.71,0.68-1.24 c-0.16-0.53-0.71-0.83-1.24-0.68c-7.31,2.15-15.46,0.62-22.96-4.32c-6.98-4.6-12.42-11.66-14.55-18.9 c-2.38-8.08-0.73-16.77,4.53-23.82c4.06-5.51,11.32-10.65,17.65-12.51c0.53-0.16,0.83-0.71,0.68-1.24 c-0.16-0.53-0.71-0.83-1.24-0.68c-6.71,1.97-14.4,7.41-18.69,13.23c-5.64,7.56-7.4,16.88-4.84,25.58c2.26,7.68,8.01,15.16,15.37,20 c5.62,3.7,11.61,5.6,17.4,5.6C212.42,168.43,214.85,168.09,217.2,167.4z M131.02,150.5c0.25,0.27,0.64,0.39,1,0.29 c0.61-0.17,15.01-3.92,26.31,8.83c0.2,0.22,0.47,0.34,0.75,0.34c0.24,0,0.47-0.08,0.66-0.25c0.41-0.37,0.45-1,0.09-1.41 c-10.8-12.19-24.68-10.19-27.73-9.57l-4.84-5.26c-0.37-0.41-1.01-0.43-1.41-0.06c-0.41,0.37-0.43,1.01-0.06,1.41L131.02,150.5z M135.35,116.69c0,0.13,0.02,0.26,0.07,0.38l7.92,19.51c0.16,0.39,0.53,0.62,0.93,0.62c0.12,0,0.25-0.02,0.38-0.07 c0.51-0.21,0.76-0.79,0.55-1.3l-7.84-19.33c0.1-19.8-3.75-26.84-3.92-27.13c-0.27-0.48-0.88-0.65-1.36-0.38 c-0.48,0.27-0.65,0.88-0.38,1.36C131.73,90.42,135.47,97.39,135.35,116.69z M149.14,114.37c0,0.16,0.03,0.32,0.1,0.47l8.94,18.13 c0.17,0.35,0.53,0.56,0.9,0.56c0.15,0,0.3-0.03,0.44-0.1c0.5-0.24,0.7-0.84,0.45-1.34l-8.83-17.91c0.21-9.05-1.67-23.07-1.69-23.21 c-0.07-0.55-0.59-0.94-1.12-0.86c-0.55,0.07-0.93,0.58-0.86,1.12C147.49,91.37,149.39,105.49,149.14,114.37z M173.37,140.61 c0.11,0,0.22-0.02,0.32-0.05c0.52-0.18,0.8-0.75,0.62-1.27c-3.02-8.86-1.04-24.48-1.02-24.63c0.07-0.55-0.32-1.05-0.86-1.12 c-0.54-0.07-1.05,0.31-1.12,0.86c-0.09,0.66-2.06,16.23,1.11,25.54C172.57,140.34,172.96,140.61,173.37,140.61z M174.11,216.58 c0.03-0.55-0.39-1.02-0.94-1.06c-0.55-0.04-1.02,0.39-1.06,0.94c-0.97,16.47-9.77,24.76-10.14,25.11c-0.38,0.35-0.44,0.92-0.13,1.33 c14.1,19.04,27.87,50.17,13.42,90.33c-18.33,50.95-62.8,81.78-99.12,68.72c-0.52-0.19-1.09,0.08-1.28,0.6 c-0.19,0.52,0.08,1.09,0.6,1.28c5.85,2.1,11.9,3.11,18.02,3.11c32.96,0,67.88-29.18,83.66-73.03c14.57-40.51,1.02-72.01-13.19-91.51 C166.15,240.08,173.24,231.47,174.11,216.58z M333.77,312.54c-5.08,0.61-8.7,5.23-8.09,10.31c0.61,5.08,5.23,8.7,10.31,8.09 c5.08-0.61,8.7-5.23,8.09-10.31C343.46,315.55,338.85,311.93,333.77,312.54z M328.15,375.84c-5.08,0.61-8.7,5.23-8.09,10.31 s5.23,8.7,10.31,8.09c5.08-0.61,8.7-5.23,8.09-10.31C337.85,378.85,333.23,375.23,328.15,375.84z M451,280.26 c-0.13-0.54-0.67-0.87-1.2-0.74c-0.62,0.14-15.32,3.77-35.2,23.43c-18.24,18.04-44.4,53.66-65.46,120.85 c-0.17,0.53,0.13,1.09,0.66,1.25c0.1,0.03,0.2,0.05,0.3,0.05c0.43,0,0.82-0.27,0.95-0.7c20.89-66.66,46.77-101.98,64.8-119.87 c19.5-19.35,34.26-23.02,34.4-23.06C450.8,281.34,451.13,280.8,451,280.26z M325.61,299.82c0.12,0,0.25-0.02,0.37-0.07 c29.51-11.67,41.81-35.06,46.93-52.63c5.53-18.99,4.08-35.47,4.07-35.63c-0.05-0.55-0.52-0.96-1.09-0.9 c-0.55,0.05-0.95,0.54-0.9,1.09c0.02,0.16,1.43,16.32-4.01,34.95c-5,17.12-16.99,39.91-45.72,51.27c-0.51,0.2-0.77,0.78-0.56,1.3 C324.83,299.58,325.21,299.82,325.61,299.82z M240.14,295.91c-24.45-15-33.14-36.08-36.12-51.13c-3.24-16.36-0.65-29.35-0.62-29.48 c0.11-0.54-0.24-1.07-0.78-1.18c-0.54-0.11-1.07,0.24-1.18,0.78c-0.11,0.54-2.7,13.45,0.6,30.19c3.05,15.47,11.95,37.14,37.05,52.53 c0.16,0.1,0.34,0.15,0.52,0.15c0.34,0,0.66-0.17,0.85-0.48C240.76,296.81,240.61,296.2,240.14,295.91z M303.58,30.9l-9.45-11.25 l-10.72,12.53l14.94,9.99L303.58,30.9z" fill="#2B1200"/></g><g id="change2_3"><path d="M366.76,151.97c-8.5,0-15.41-6.91-15.41-15.41c0-1.38,1.12-2.5,2.5-2.5s2.5,1.12,2.5,2.5 c0,5.74,4.67,10.41,10.41,10.41s10.41-4.67,10.41-10.41s-4.67-10.41-10.41-10.41c-1.38,0-2.5-1.12-2.5-2.5s1.12-2.5,2.5-2.5 c8.5,0,15.41,6.91,15.41,15.41S375.26,151.97,366.76,151.97z M210.98,184.17c3.91-1.28,7.09-4.01,8.95-7.68s2.18-7.85,0.9-11.76 c-0.43-1.31-1.84-2.03-3.15-1.6c-1.31,0.43-2.03,1.84-1.6,3.15c0.87,2.64,0.65,5.46-0.61,7.95c-1.26,2.48-3.4,4.32-6.05,5.19 c-2.64,0.87-5.47,0.65-7.94-0.61c-2.48-1.26-4.32-3.4-5.19-6.05c-1.79-5.46,1.2-11.35,6.65-13.13c1.31-0.43,2.03-1.84,1.6-3.15 c-0.43-1.31-1.84-2.03-3.15-1.6c-8.08,2.65-12.49,11.37-9.85,19.44c1.28,3.91,4.01,7.09,7.68,8.95c2.19,1.11,4.56,1.67,6.95,1.67 C207.78,184.95,209.4,184.69,210.98,184.17z" fill="#FFDCDC"/></g></svg>