<svg xmlns="http://www.w3.org/2000/svg" width="256" height="256" viewBox="0 0 256 256" fill="none"><path d="M96 21.333C68.053 21.333 45.333 44.053 45.333 72c0 27.413 21.44 49.6 49.387 50.56 0.853 -0.107 1.707 -0.107 2.347 0h0.747a50.539 50.539 0 0 0 48.853 -50.56C146.667 44.053 123.947 21.333 96 21.333Z" fill="#009dff"/><path d="M150.187 150.933c-29.76 -19.84 -78.293 -19.84 -108.267 0 -13.547 9.067 -21.013 21.333 -21.013 34.453s7.467 25.28 20.907 34.24C56.747 229.653 76.373 234.667 96 234.667c19.627 0 39.253 -5.013 54.187 -15.04 13.44 -9.067 20.907 -21.227 20.907 -34.453 -0.107 -13.12 -7.467 -25.28 -20.907 -34.24Z" fill="#009dff"/><path d="M213.227 78.293c1.707 20.693 -13.013 38.827 -33.387 41.28h-0.533c-0.64 0 -1.28 0 -1.813 0.213 -10.347 0.533 -19.84 -2.773 -26.987 -8.853 10.987 -9.813 17.28 -24.533 16 -40.533a49.493 49.493 0 0 0 -8.213 -23.253 38.315 38.315 0 0 1 54.933 31.147Z" fill="#009dff"/><path d="M234.56 176.96c-0.853 10.347 -7.467 19.307 -18.56 25.387 -10.667 5.867 -24.107 8.64 -37.44 8.32 7.68 -6.933 12.16 -15.573 13.013 -24.747 1.067 -13.227 -5.227 -25.92 -17.813 -36.053 -7.147 -5.653 -15.467 -10.133 -24.533 -13.44 23.573 -6.827 53.227 -2.24 71.467 12.48 9.813 7.893 14.827 17.813 13.867 28.053Z" fill="#009dff"/></svg>