<svg xmlns="http://www.w3.org/2000/svg" width="256" height="256" viewBox="0 0 256 256" fill="none"><path d="M64 202.667h138.667V64H64v138.667Z" fill="white"/><path d="M128 21.333C69.227 21.333 21.333 69.227 21.333 128s47.893 106.667 106.667 106.667 106.667 -47.893 106.667 -106.667S186.773 21.333 128 21.333Zm35.84 131.2c3.093 3.093 3.093 8.213 0 11.307 -1.6 1.6 -3.627 2.347 -5.653 2.347s-4.053 -0.747 -5.653 -2.347l-24.533 -24.533 -24.533 24.533c-1.6 1.6 -3.627 2.347 -5.653 2.347s-4.053 -0.747 -5.653 -2.347a8.043 8.043 0 0 1 0 -11.307l24.533 -24.533 -24.533 -24.533a8.043 8.043 0 0 1 0 -11.307c3.093 -3.093 8.213 -3.093 11.307 0l24.533 24.533 24.533 -24.533c3.093 -3.093 8.213 -3.093 11.307 0 3.093 3.093 3.093 8.213 0 11.307l-24.533 24.533 24.533 24.533Z" fill="#F41D1D"/></svg>