<svg xmlns="http://www.w3.org/2000/svg" width="256" height="256" viewBox="0 0 256 256" fill="none"><path d="M172.693 21.333H83.307C44.48 21.333 21.333 44.48 21.333 83.307v89.387C21.333 211.52 44.48 234.667 83.307 234.667h89.387c38.827 0 61.973 -23.147 61.973 -61.973V83.307C234.667 44.48 211.52 21.333 172.693 21.333ZM106.347 158.933l-24 24c-1.6 1.6 -3.627 2.347 -5.653 2.347s-4.16 -0.747 -5.653 -2.347l-8 -8c-3.2 -3.093 -3.2 -8.213 0 -11.307 3.093 -3.093 8.107 -3.093 11.307 0l2.347 2.347 18.347 -18.347c3.093 -3.093 8.107 -3.093 11.307 0 3.093 3.093 3.093 8.213 0 11.307Zm0 -74.667 -24 24c-1.6 1.6 -3.627 2.347 -5.653 2.347s-4.16 -0.747 -5.653 -2.347l-8 -8c-3.2 -3.093 -3.2 -8.213 0 -11.307 3.093 -3.093 8.107 -3.093 11.307 0l2.347 2.347 18.347 -18.347c3.093 -3.093 8.107 -3.093 11.307 0 3.093 3.093 3.093 8.213 0 11.307Zm80.96 93.013h-56c-4.373 0 -8 -3.627 -8 -8s3.627 -8 8 -8h56a7.989 7.989 0 1 1 0 16Zm0 -74.667h-56c-4.373 0 -8 -3.627 -8 -8s3.627 -8 8 -8h56a7.989 7.989 0 1 1 0 16Z" fill="#009dff"/></svg>