<svg xmlns="http://www.w3.org/2000/svg" width="256" height="256" viewBox="0 0 256 256" fill="none"><path d="M170.667 21.333H85.333C48 21.333 32 42.667 32 74.667v106.667c0 32 16 53.333 53.333 53.333h85.333c37.333 0 53.333 -21.333 53.333 -53.333V74.667c0 -32 -16 -53.333 -53.333 -53.333ZM85.333 130.667h42.667c4.373 0 8 3.627 8 8s-3.627 8 -8 8H85.333c-4.373 0 -8 -3.627 -8 -8s3.627 -8 8 -8Zm85.333 58.667H85.333c-4.373 0 -8 -3.627 -8 -8s3.627 -8 8 -8h85.333c4.373 0 8 3.627 8 8s-3.627 8 -8 8Zm26.667 -90.667h-21.333c-16.213 0 -29.333 -13.12 -29.333 -29.333v-21.333c0 -4.373 3.627 -8 8 -8s8 3.627 8 8v21.333c0 7.36 5.973 13.333 13.333 13.333h21.333c4.373 0 8 3.627 8 8s-3.627 8 -8 8Z" fill="#009dff"/></svg>