<svg xmlns="http://www.w3.org/2000/svg" width="256" height="256" viewBox="0 0 256 256" fill="none"><path d="M88.427 67.093c-4.48 0 -8 -3.627 -8 -8V29.333a7.989 7.989 0 1 1 16 0v29.653c0 4.48 -3.52 8.107 -8 8.107Z" fill="#009dff"/><path d="M167.573 67.093c-4.48 0 -8 -3.627 -8 -8V29.333a7.989 7.989 0 1 1 16 0v29.653c0 4.48 -3.52 8.107 -8 8.107Z" fill="#009dff"/><path d="M208.747 48c-7.04 -5.227 -17.173 -0.213 -17.173 8.64v1.067c0 12.48 -8.96 24 -21.44 25.28 -14.4 1.493 -26.56 -9.813 -26.56 -23.893V48c0 -5.867 -4.8 -10.667 -10.667 -10.667h-9.813c-5.867 0 -10.667 4.8 -10.667 10.667v11.093c0 8.427 -4.373 15.893 -10.987 20.053 -0.96 0.64 -2.027 1.173 -3.093 1.707 -0.96 0.533 -2.027 0.96 -3.2 1.28 -1.28 0.427 -2.667 0.747 -4.16 0.853 -1.707 0.213 -3.413 0.213 -5.12 0 -1.493 -0.107 -2.88 -0.427 -4.16 -0.853a28.736 28.736 0 0 1 -6.293 -2.987c-6.72 -4.693 -10.987 -12.8 -10.987 -21.44v-1.067c0 -8.213 -8.747 -13.12 -15.68 -9.6 -0.107 0.107 -0.213 0.107 -0.32 0.213 -0.427 0.213 -0.747 0.427 -1.173 0.747 -0.32 0.32 -0.747 0.533 -1.067 0.853 -2.987 2.347 -5.653 5.013 -7.893 7.893 -1.173 1.28 -2.133 2.667 -2.987 4.053a37.312 37.312 0 0 0 -2.88 4.907c-0.213 0.213 -0.32 0.32 -0.32 0.533 -0.64 1.28 -1.28 2.56 -1.707 3.947 -0.32 0.533 -0.427 0.96 -0.64 1.493 -0.64 1.6 -1.067 3.2 -1.493 4.8 -0.427 1.493 -0.747 3.093 -0.96 4.693a62.955 62.955 0 0 0 -0.64 8.107v93.44A51.947 51.947 0 0 0 78.613 234.667h98.773a51.947 51.947 0 0 0 51.947 -51.947V89.28c0 -16.96 -8.107 -31.787 -20.587 -41.28ZM128 185.813H78.507a8.053 8.053 0 0 1 0 -16.107H128c4.48 0 8 3.627 8 8.107 0 4.373 -3.52 8 -8 8Zm29.653 -39.573H78.507a8.053 8.053 0 0 1 0 -16.107h79.147c4.48 0 8.107 3.627 8.107 8.107 0 4.373 -3.627 8 -8.107 8Z" fill="#009dff"/></svg>